Coordinates
version=1
nRows=6
nColumns=63
inDegrees=yes

Units are S.I. units (second, meters, Newtons, ...)
If the header above contains a line with 'inDegrees', this indicates whether rotational values are in degrees (yes) or radians (no).

endheader
time	pelvis_tilt	pelvis_list	pelvis_rotation	pelvis_tx	pelvis_ty	pelvis_tz	hip_flexion_r	hip_adduction_r	hip_rotation_r	knee_angle_r	knee_angle_r_beta	ankle_angle_r	subtalar_angle_r	mtp_angle_r	hip_flexion_l	hip_adduction_l	hip_rotation_l	knee_angle_l	knee_angle_l_beta	ankle_angle_l	subtalar_angle_l	mtp_angle_l	L5_S1_Flex_Ext	L5_S1_Lat_Bending	L5_S1_axial_rotation	L4_L5_Flex_Ext	L4_L5_Lat_Bending	L4_L5_axial_rotation	L3_L4_Flex_Ext	L3_L4_Lat_Bending	L3_L4_axial_rotation	L2_L3_Flex_Ext	L2_L3_Lat_Bending	L2_L3_axial_rotation	L1_L2_Flex_Ext	L1_L2_Lat_Bending	L1_L2_axial_rotation	L1_T12_Flex_Ext	L1_T12_Lat_Bending	L1_T12_axial_rotation	Abs_r3	Abs_r2	Abs_r1	Abs_t1	Abs_t2	neck_flexion	neck_bending	neck_rotation	arm_flex_r	arm_add_r	arm_rot_r	elbow_flex_r	pro_sup_r	wrist_flex_r	wrist_dev_r	arm_flex_l	arm_add_l	arm_rot_l	elbow_flex_l	pro_sup_l	wrist_flex_l	wrist_dev_l
1.627119	-2.543361	-1.781554	81.754208	0.174492	0.926543	0.550238	0.805147	-2.023931	-5.753014	12.264176	0.214050	29.392403	9.009246	0.000000	-0.356429	0.601738	-5.844046	8.113901	0.141614	28.006285	8.226758	0.000000	-0.067866	-0.276511	1.076774	-0.126034	-0.367759	1.144073	-0.111497	-0.672308	1.144073	-0.077564	-0.672308	0.942177	-0.063020	-0.563860	0.874879	-0.038779	-0.428315	0.807581	-0.484761	-3.127943	5.988695	0.000000	0.000000	16.457004	0.085957	8.255511	20.360999	4.689120	40.860249	22.059699	47.122350	-1.684090	5.662166	33.262214	4.799988	95.573643	20.099103	70.249162	6.301416	-7.850416
1.644068	-2.573294	-1.955094	81.471234	0.174203	0.926272	0.551652	1.219293	-2.051440	-5.266907	12.387404	0.216201	29.488970	8.759012	0.000000	-0.031209	0.644044	-5.877000	8.195649	0.143041	28.108948	7.976760	0.000000	-0.064027	-0.270057	1.129715	-0.118905	-0.359175	1.200323	-0.105190	-0.656616	1.200323	-0.073177	-0.656616	0.988501	-0.059456	-0.550700	0.917894	-0.036585	-0.418318	0.847287	-0.457339	-3.054936	6.283138	0.000000	0.000000	16.729677	-0.038645	8.371522	19.928312	4.697298	39.348594	22.614893	48.138157	-1.756217	6.239286	33.063935	4.768308	94.263587	20.051064	69.918890	6.399189	-7.567358
1.661017	-2.611723	-2.114872	81.276390	0.173885	0.926049	0.552960	1.604984	-2.090363	-4.887892	12.512229	0.218380	29.589047	8.533574	0.000000	0.283795	0.690208	-5.875585	8.296175	0.144796	28.189609	7.777001	0.000000	-0.060780	-0.266602	1.167927	-0.112875	-0.354581	1.240922	-0.099856	-0.648216	1.240922	-0.069466	-0.648216	1.021936	-0.056441	-0.543655	0.948941	-0.034730	-0.412967	0.875945	-0.434149	-3.015856	6.495659	0.000000	0.000000	16.964889	-0.151296	8.441510	19.409357	4.754415	37.564828	23.234208	49.289325	-1.950385	6.857397	32.835806	4.683297	92.687653	20.088719	70.256334	6.582161	-7.224424
1.677966	-2.653738	-2.251631	81.190575	0.173525	0.925895	0.554110	1.937273	-2.136323	-4.655675	12.622390	0.220302	29.686630	8.361166	0.000000	0.569364	0.737515	-5.818549	8.406948	0.146729	28.227601	7.634858	0.000000	-0.058846	-0.265636	1.186896	-0.109282	-0.353296	1.261077	-0.096677	-0.645868	1.261077	-0.067255	-0.645868	1.038534	-0.054644	-0.541685	0.964353	-0.033624	-0.411470	0.890172	-0.420328	-3.004930	6.601161	0.000000	0.000000	17.138172	-0.263590	8.454867	18.782136	4.864714	35.461628	23.947389	50.658663	-2.213153	7.485878	32.540872	4.474358	90.800301	20.318176	71.240634	6.535332	-6.872714
1.694915	-2.697918	-2.378704	81.283103	0.173065	0.925780	0.555142	2.224800	-2.186194	-4.640510	12.726471	0.222119	29.793053	8.265160	0.000000	0.863433	0.773798	-5.720448	8.560976	0.149417	28.239522	7.628580	0.000000	-0.057319	-0.267121	1.171932	-0.106447	-0.355270	1.245178	-0.094169	-0.649477	1.245178	-0.065510	-0.649477	1.025441	-0.053226	-0.544712	0.952195	-0.032752	-0.413770	0.878949	-0.409423	-3.021722	6.517935	0.000000	0.000000	17.250725	-0.412627	8.433340	18.075207	4.977936	33.247773	24.819069	52.046284	-2.523256	8.182481	32.170366	4.142565	88.544115	20.787338	72.652078	6.698480	-6.371366
1.711864	-2.744427	-2.490715	81.567545	0.172489	0.925715	0.556074	2.456144	-2.244330	-4.885237	12.821232	0.223773	29.906045	8.276440	0.000000	1.166819	0.799385	-5.597645	8.762658	0.152937	28.239372	7.804659	0.000000	-0.056877	-0.271469	1.122065	-0.105626	-0.361054	1.192194	-0.093443	-0.660050	1.192194	-0.065005	-0.660050	0.981807	-0.052816	-0.553580	0.911678	-0.032499	-0.420505	0.841549	-0.406266	-3.070912	6.240588	0.000000	0.000000	17.283731	-0.563320	8.360605	17.329990	5.079697	31.081633	25.801269	53.403513	-2.633546	8.940760	31.734765	3.732085	86.295713	21.509668	73.995522	6.887104	-5.798616
